<?xml version="1.0" encoding="UTF-8" standalone="no"?>
<svg
   xmlns:dc="http://purl.org/dc/elements/1.1/"
   xmlns:cc="http://creativecommons.org/ns#"
   xmlns:rdf="http://www.w3.org/1999/02/22-rdf-syntax-ns#"
   xmlns:svg="http://www.w3.org/2000/svg"
   xmlns="http://www.w3.org/2000/svg"
   xmlns:sodipodi="http://sodipodi.sourceforge.net/DTD/sodipodi-0.dtd"
   xmlns:inkscape="http://www.inkscape.org/namespaces/inkscape"
   id="ff41f38c-6ef4-4d72-b305-d437d63a9edd"
   data-name="Layer 1"
   width="819.07045"
   height="584"
   viewBox="0 0 819.07045 584"
   version="1.1"
   sodipodi:docname="undraw_Security_on_re_e491-3.svg"
   inkscape:version="0.92.4 (5da689c313, 2019-01-14)">
  <metadata
     id="metadata49">
    <rdf:RDF>
      <cc:Work
         rdf:about="">
        <dc:format>image/svg+xml</dc:format>
        <dc:type
           rdf:resource="http://purl.org/dc/dcmitype/StillImage" />
        <dc:title></dc:title>
      </cc:Work>
    </rdf:RDF>
  </metadata>
  <defs
     id="defs47" />
  <sodipodi:namedview
     pagecolor="#ffffff"
     bordercolor="#666666"
     borderopacity="1"
     objecttolerance="10"
     gridtolerance="10"
     guidetolerance="10"
     inkscape:pageopacity="0"
     inkscape:pageshadow="2"
     inkscape:window-width="1920"
     inkscape:window-height="1017"
     id="namedview45"
     showgrid="false"
     inkscape:zoom="0.49035667"
     inkscape:cx="-504.55911"
     inkscape:cy="346.32221"
     inkscape:window-x="-8"
     inkscape:window-y="-8"
     inkscape:window-maximized="1"
     inkscape:current-layer="ff41f38c-6ef4-4d72-b305-d437d63a9edd" />
  <path
     d="m 418.93144,489.5317 a 75.18955,75.18955 0 0 1 -18.63955,-2.41115 l -1.19992,-0.332 -1.11309,-0.55768 c -40.242,-20.17656 -74.192,-46.827 -100.90712,-79.21137 A 299.86458,299.86458 0 0 1 246.1226,316.54936 348.20978,348.20978 0 0 1 226.43174,193.88483 c 0.017,-0.87611 0.0314,-1.55256 0.0314,-2.01861 0,-20.28912 11.262,-38.0913 28.69121,-45.35357 13.33947,-5.55813 134.45539,-55.305262 143.20632,-58.899632 16.48038,-8.25772 34.062,-1.36535 36.87554,-0.16006 6.31094,2.58025 118.2752,48.375002 142.47062,59.896212 24.93578,11.87415 31.5889,33.20566 31.5889,43.93787 0,48.58822 -8.415,93.99778 -25.01129,134.9674 a 312.51684,312.51684 0 0 1 -56.16213,90.51087 c -45.84677,51.59381 -91.7057,69.8841 -92.14828,70.0453 a 50.11,50.11 0 0 1 -17.04258,2.72109 z m -10.78453,-26.71374 c 3.97586,0.89138 13.12949,2.22845 19.0957,0.052 7.57929,-2.76408 45.96243,-22.668 81.83036,-63.03189 49.55709,-55.769 74.70242,-125.87542 74.73919,-208.37177 -0.0885,-1.67134 -1.27542,-13.59188 -17.06153,-21.10867 -23.72625,-11.29833 -140.10356,-58.88488 -141.27636,-59.3645 l -0.32154,-0.13631 c -2.43886,-1.022 -10.20055,-3.1747 -15.55082,-0.371 l -1.07124,0.49943 c -1.2972,0.53279 -129.86317,53.33754 -143.57481,59.05064 -9.59168,3.99651 -13.00917,13.89729 -13.00917,21.83037 0,0.57973 -0.015,1.423 -0.0362,2.51294 -1.09585,56.44716 11.96634,195.34603 156.23641,268.43876 z"
     id="path10"
     inkscape:connector-curvature="0"
     style="fill:#3f3d56" />
  <path
     d="m 403.68972,99.198718 c 0,0 -129.7345,53.283812 -143.63465,59.075532 -13.90015,5.79172 -20.85019,19.69184 -20.85019,33.592 0,13.90016 -10.42506,195.27813 164.48484,282.97404 0,0 15.87478,4.39241 27.91882,0 12.04404,-4.39241 164.9454,-78.52642 164.9454,-283.55325 0,0 0,-20.85018 -24.32522,-32.43362 C 547.9035,147.26998 430.29514,99.198718 430.29514,99.198718 c 0,0 -14.44282,-6.37089 -26.60542,0 z"
     id="path12"
     inkscape:connector-curvature="0"
     style="fill:#6c63ff" />
  <path
     d="m 417.58984,140.89909 v 284.25025 c 0,0 -130.89284,-63.0066 -129.73449,-228.64973 z"
     id="path14"
     inkscape:connector-curvature="0"
     style="opacity:0.1" />
  <polygon
     points="151.235,207.969 175.483,189.11 195.226,214.494 261.921,144.088 284.224,165.219 192.931,261.581 "
     id="polygon16"
     transform="translate(226.36584,83.612608)"
     style="fill:#ffffff" />
</svg>
